/vscmnt/brussel_pixiu_data/_data_brussel/112/vsc11236/PredSimResults/SUBJ04opt3D/expIG/worker_13.mot
version=1
nRows=10
nColumns=50
inDegrees=yes
endheader
                time	         pelvis_tilt	         pelvis_list	     pelvis_rotation	           pelvis_tx	           pelvis_ty	           pelvis_tz	       hip_flexion_r	     hip_adduction_r	      hip_rotation_r	        knee_angle_r	       ankle_angle_r	         mtp_angle_r	       hip_flexion_l	     hip_adduction_l	      hip_rotation_l	        knee_angle_l	       ankle_angle_l	         mtp_angle_l	    lumbar_extension	      lumbar_bending	     lumbar_rotation	 ercspn_r/activation	 intobl_r/activation	 extobl_r/activation	    abd_r/activation	    add_r/activation	hamstrings_r/activation	bifemsh_r/activation	glut_max_r/activation	iliopsoas_r/activation	rect_fem_r/activation	  vasti_r/activation	gastroc_r/activation	 soleus_r/activation	tib_ant_r/activation	 ercspn_l/activation	 intobl_l/activation	 extobl_l/activation	    abd_l/activation	    add_l/activation	hamstrings_l/activation	bifemsh_l/activation	glut_max_l/activation	iliopsoas_l/activation	rect_fem_l/activation	  vasti_l/activation	gastroc_l/activation	 soleus_l/activation	tib_ant_l/activation	
          0.00000000	         -5.58393940	         -1.29359058	          5.43220739	          0.00000000	          0.87389878	         -0.00295795	         36.28756616	          0.09517328	         -5.70514859	        -20.48500437	         11.29024772	          0.39782581	        -15.28051367	         -0.67880750	         -4.27220939	        -11.95127588	          1.45614384	         36.88952982	        -12.54390614	          1.99611771	        -11.84914790	          0.14263593	          0.11627412	          0.02143602	          0.00999999	          0.38414260	          0.35428643	          0.04333359	          0.00999999	          0.21662138	          0.01662505	          0.10244325	          0.01135509	          0.01135509	          0.50149446	          0.13110621	          0.00999999	          0.00999999	          0.01966092	          0.11867872	          0.03760268	          0.21043424	          0.01533924	          0.58652225	          0.00999999	          0.01662505	          0.26449402	          0.16842379	          0.00999999	
          0.00813058	         -5.58352314	         -1.47106375	          5.24865292	          0.01718111	          0.87143050	         -0.00263628	         35.94762636	          0.65853894	         -5.18344154	        -20.79681797	         10.89160012	          0.39386770	        -15.24626119	         -0.99631312	         -4.71518624	        -14.04931175	          0.81353755	         38.23007426	        -12.17385585	          2.48470390	        -11.97910334	          0.12561402	          0.10239817	          0.01887788	          0.00999999	          0.36253276	          0.31887912	          0.03816224	          0.00999999	          0.19077017	          0.01464104	          0.18598547	          0.00999999	          0.00999999	          0.51585739	          0.11546023	          0.00999999	          0.00999999	          0.01731462	          0.16734587	          0.03311525	          0.18532140	          0.01350868	          0.51652774	          0.00999999	          0.01464105	          0.23292978	          0.14832440	          0.00999999	
          0.01626116	         -5.57250637	         -1.65216445	          5.05465243	          0.03448772	          0.86889513	         -0.00226957	         35.53274694	          1.19394508	         -4.60177986	        -21.79177358	         10.47193595	          0.33650371	        -15.00453049	         -1.34580697	         -5.15974585	        -16.56117501	          0.16434724	         39.33747011	        -11.79824561	          2.97087042	        -12.06969925	          0.11062346	          0.09017816	          0.01662503	          0.02675592	          0.34790585	          0.28082466	          0.03360803	          0.00999999	          0.16800400	          0.01289381	          0.27516329	          0.02493351	          0.03467793	          0.51795723	          0.10168142	          0.01289381	          0.00999999	          0.01524833	          0.26644977	          0.07771003	          0.16320547	          0.01289381	          0.45488625	          0.00999999	          0.01289381	          0.20513236	          0.13062363	          0.00999999	
          0.02439174	         -5.55681767	         -1.87250035	          4.85543431	          0.05185816	          0.86639923	         -0.00186924	         34.92605694	          1.74556178	         -4.03419683	        -22.70661493	         10.42058529	          0.30827118	        -14.53670846	         -1.76951224	         -5.61347550	        -19.48951185	         -0.48888890	         40.04823873	        -11.41817633	          3.49494477	        -12.11543076	          0.09742186	          0.08674489	          0.01464103	          0.11632176	          0.30638739	          0.24731155	          0.02959731	          0.08125260	          0.14795471	          0.01135508	          0.28507013	          0.02195799	          0.03053953	          0.60851150	          0.08954694	          0.01135509	          0.00999999	          0.01342862	          0.23465214	          0.06843626	          0.15542091	          0.01135509	          0.42898270	          0.00999999	          0.01135509	          0.18065223	          0.11503524	          0.00999999	
          0.03252232	         -5.53826039	         -2.10835104	          4.62941255	          0.06909780	          0.86409465	         -0.00141446	         34.21117238	          2.30072391	         -3.56536306	        -23.40498920	         10.18727309	          0.28414651	        -13.81046111	         -2.24323010	         -6.08280888	        -22.85357916	         -1.19765693	         40.23817248	        -11.06333847	          4.02910157	        -12.09780176	          0.08579571	          0.07639291	          0.01289380	          0.19316384	          0.26982367	          0.21779783	          0.02606522	          0.09911390	          0.13029806	          0.00999999	          0.38213826	          0.01933756	          0.02689499	          0.61778033	          0.10154982	          0.00999999	          0.00999999	          0.01182607	          0.20664917	          0.06026920	          0.13687326	          0.00999999	          0.37778868	          0.00999999	          0.00999999	          0.15909352	          0.10130714	          0.03474625	
          0.04065290	         -5.51723804	         -2.34365102	          4.36666544	          0.08601794	          0.86212161	         -0.00091791	         33.51047837	          2.82507900	         -3.22612065	        -24.12392483	         10.05814584	          0.23251803	        -12.80145217	         -2.75371635	         -6.56632729	        -26.66136382	         -1.95922803	         39.69158586	        -10.76118328	          4.55691017	        -12.00732219	          0.07555700	          0.06727632	          0.01135507	          0.27408564	          0.25714732	          0.19180623	          0.02295465	          0.11557459	          0.11474852	          0.00999999	          0.46896950	          0.01702985	          0.02368539	          0.62176606	          0.16955882	          0.00999999	          0.00999999	          0.01041477	          0.18198805	          0.05307678	          0.12053905	          0.00999999	          0.33270406	          0.00999999	          0.00999999	          0.14010758	          0.08921733	          0.09644524	
          0.04878349	         -5.49556493	         -2.58503985	          4.07103800	          0.10248221	          0.86062148	         -0.00040854	         32.86791894	          3.31047330	         -3.04943891	        -24.96177745	         10.27380306	          0.18539124	        -11.50577329	         -3.30982778	         -7.05168086	        -30.87173348	         -2.77014889	         38.22658467	        -10.52655721	          5.08640057	        -11.84410878	          0.06654017	          0.05924768	          0.00999999	          0.31371956	          0.27599018	          0.16891642	          0.02021528	          0.10178213	          0.10105464	          0.00999999	          0.53975012	          0.01499754	          0.02085882	          0.61638219	          0.21062922	          0.00999999	          0.00999999	          0.00999999	          0.33402062	          0.04674269	          0.10615413	          0.00999999	          0.29299975	          0.00999999	          0.00999999	          0.12338740	          0.07857029	          0.17012010	
          0.05691407	         -5.47450907	         -2.81642834	          3.74379067	          0.11844309	          0.85966993	          0.00008729	         32.24106547	          3.75165869	         -2.98633669	        -25.80735741	         10.69305295	          0.15471328	         -9.96045957	         -3.88183551	         -7.50188766	        -35.38343472	         -3.56107220	         35.73989520	        -10.36474183	          5.59899150	        -11.61064807	          0.05859938	          0.05217717	          0.00999999	          0.34266982	          0.26632576	          0.14875824	          0.01780282	          0.08963563	          0.08899496	          0.00999999	          0.59280635	          0.01320776	          0.01836957	          0.56460175	          0.24396673	          0.00999999	          0.00999999	          0.00999999	          0.41466799	          0.04116450	          0.09348589	          0.00999999	          0.25803369	          0.00999999	          0.00999999	          0.10866257	          0.06919386	          0.30254954	
          0.06504465	         -5.45520088	         -3.03625771	          3.39054781	          0.13390698	          0.85928312	          0.00052471	         31.57415588	          4.16362892	         -2.95883328	        -26.56351598	         11.32603073	          0.14275270	         -8.23154304	         -4.42314673	         -7.84403605	        -40.04361997	         -4.09179161	         32.35825697	        -10.27243540	          6.09460883	        -11.31041811	          0.05160624	          0.04595044	          0.00999999	          0.36330976	          0.23454293	          0.13100570	          0.01567827	          0.07893868	          0.07837446	          0.00999999	          0.59594256	          0.01163157	          0.01617738	          0.50688241	          0.25077768	          0.02162300	          0.01085519	          0.00999999	          0.38175019	          0.03625201	          0.08232945	          0.00999999	          0.22724041	          0.08665787	          0.00999999	          0.09569497	          0.06093639	          0.28107960	
          0.07317523	         -5.43926763	         -3.25090144	          3.01314950	          0.14891458	          0.85946701	          0.00086471	         30.83373321	          4.56774231	         -2.89904441	        -27.15919346	         12.08354438	          0.19021824	         -6.40050934	         -4.88781791	         -8.05300578	        -44.64580681	         -3.80379834	         29.14133124	        -10.24278404	          6.58226704	        -10.94091507	          0.04544764	          0.04046680	          0.00999999	          0.36197837	          0.20655299	          0.11537171	          0.01887789	          0.06951828	          0.06902140	          0.00999999	          0.57037110	          0.01024348	          0.01424680	          0.44804767	          0.22085033	          0.01904255	          0.00999999	          0.00999999	          0.34534932	          0.03192576	          0.10465355	          0.00999999	          0.20012196	          0.19145372	          0.00999999	          0.08427491	          0.05366435	          0.31602012	
